<?xml version="1.0" encoding="UTF-8" standalone="no"?>
<!-- Created with Inkscape (http://www.inkscape.org/) -->

<svg
   version="1.1"
   id="svg1"
   width="110"
   height="110"
   viewBox="0 0 110 110"
   sodipodi:docname="siasar.svg"
   inkscape:version="1.3.2 (091e20e, 2023-11-25)"
   inkscape:export-filename="logo.svg"
   inkscape:export-xdpi="299.983"
   inkscape:export-ydpi="299.983"
   xmlns:inkscape="http://www.inkscape.org/namespaces/inkscape"
   xmlns:sodipodi="http://sodipodi.sourceforge.net/DTD/sodipodi-0.dtd"
   xmlns="http://www.w3.org/2000/svg"
   xmlns:svg="http://www.w3.org/2000/svg">
  <sodipodi:namedview
     id="namedview1"
     pagecolor="#ffffff"
     bordercolor="#666666"
     borderopacity="1.0"
     inkscape:showpageshadow="2"
     inkscape:pageopacity="0.0"
     inkscape:pagecheckerboard="0"
     inkscape:deskcolor="#d1d1d1"
     inkscape:zoom="1.7796925"
     inkscape:cx="42.423059"
     inkscape:cy="59.560851"
     inkscape:window-width="1920"
     inkscape:window-height="1027"
     inkscape:window-x="1920"
     inkscape:window-y="25"
     inkscape:window-maximized="1"
     inkscape:current-layer="g1" />
  <defs
     id="defs1" />
  <g
     id="g1"
     transform="translate(-33.821699,-13.515547)">
    <path
       id="path1"
       style="fill:#096396;fill-rule:evenodd;stroke-width:13.0123;stroke-linecap:round;stroke-linejoin:round;paint-order:stroke fill markers"
       d="m 53.259402,18.652521 c 0,8.616981 -6.67031,15.602425 -14.898555,15.602424 -3.074509,0 -14.72165,-1.16975 -14.72165,-15.071711 0,-8.61698 6.67031,-14.3640941 14.898554,-14.3640947 8.228245,0 14.721651,5.2164007 14.721651,13.8333817 z"
       transform="translate(30.03192,15.417165)" />
    <path
       id="path1-6"
       style="fill:#096396;fill-rule:evenodd;stroke-width:10.6086;stroke-linecap:round;stroke-linejoin:round;paint-order:stroke fill markers"
       d="m 35.100196,56.468002 c 0,7.062037 -5.409779,12.786949 -12.083079,12.786949 -6.673301,10e-7 -12.08308,-5.724912 -12.08308,-12.786949 0,-7.062037 5.763588,-12.079333 12.436888,-12.079332 6.673301,0 11.729271,5.017295 11.729271,12.079332 z"
       transform="translate(30.03192,15.417165)" />
    <path
       id="path1-7"
       style="fill:#096396;fill-rule:evenodd;stroke-width:8.25621;stroke-linecap:round;stroke-linejoin:round;paint-order:stroke fill markers"
       d="m 44.216253,90.130676 c 0,5.507093 -4.20177,9.263857 -9.384916,9.263857 -5.183146,0 -9.384916,-3.756764 -9.384916,-9.263857 0,-5.507092 4.378674,-9.263856 9.56182,-9.263856 5.183146,0 9.208012,3.756764 9.208012,9.263856 z"
       transform="translate(30.03192,15.417165)" />
    <path
       id="path2"
       style="fill:#096396;fill-rule:evenodd;stroke-width:8.78104;stroke-linecap:round;stroke-linejoin:round;paint-order:stroke fill markers"
       d="m 18.492406,95.882311 c 0.0067,2.415556 -1.881521,4.273939 -4.15936,3.784064 -2.24315,-0.482412 -4.10036,-1.677255 -4.10036,-3.945949 0,-2.268695 2.043315,-3.601944 4.080694,-4.107835 0.117131,-0.02909 4.166562,-0.181539 4.179026,4.26972 z"
       transform="translate(30.03192,15.417165)" />
    <path
       style="fill:#096396;fill-opacity:1;stroke:none;stroke-width:1px;stroke-linecap:butt;stroke-linejoin:miter;stroke-opacity:1"
       d="m 66.162162,10.437346 c 3.360335,10.404892 2.717055,22.048269 -1.769041,32.019657 -2.711538,6.027022 -6.720831,11.369361 -9.906635,17.159705 -3.510842,6.381116 -6.055021,13.675324 -4.953316,20.874692 0.953504,6.230913 4.676674,11.911202 9.784733,15.604598 5.108059,3.693396 11.511215,5.441972 17.812318,5.270092 6.045404,-0.16491 12.04849,-2.072254 17.018129,-5.518528 4.969638,-3.446273 8.87642,-8.430505 10.93273,-14.117832 1.04863,-2.900301 1.62018,-5.955314 1.94595,-9.022113 C 108.44729,59.337487 105.10061,45.509948 97.723726,34.26899 90.346846,23.028031 78.993196,14.455067 66.162162,10.437346 Z"
       id="path3"
       transform="translate(30.03192,15.417165)" />
  </g>
</svg>
